<?xml version="1.0" encoding="UTF-8"?> <svg xmlns="http://www.w3.org/2000/svg" xmlns:xlink="http://www.w3.org/1999/xlink" width="191.328" height="57.079" viewBox="0 0 191.328 57.079"><defs><linearGradient id="linear-gradient" x1="13.34" y1="12.446" x2="13.509" y2="12.613" gradientUnits="objectBoundingBox"><stop offset="0" stop-color="#28b677"></stop><stop offset="0" stop-color="#08bc78"></stop><stop offset="0.281" stop-color="#08bc78"></stop><stop offset="0.803" stop-color="#08c177"></stop><stop offset="1" stop-color="#0ce546" stop-opacity="0.835"></stop></linearGradient></defs><g id="lending-tree-logo" transform="translate(0)"><g id="Group_36" data-name="Group 36" transform="translate(0 20.506)"><path id="Path_29" data-name="Path 29" d="M188.973,325.627c0-3.493-.806-6.213-2.392-8.081s-3.99-2.838-7.087-2.838a9.3,9.3,0,0,0-7.288,2.92c-1.717,1.936-2.56,4.755-2.56,8.417A11.785,11.785,0,0,0,171.036,332a8.754,8.754,0,0,0,3.749,3.567A11.721,11.721,0,0,0,180,336.7a14.311,14.311,0,0,0,4.017-.515,11.019,11.019,0,0,0,3.284-1.6,1.043,1.043,0,0,0,.455-.829,1.579,1.579,0,0,0-.141-.615l-.847-1.767c-.2-.533-.546-.61-.733-.61a1.1,1.1,0,0,0-.6.228,8.628,8.628,0,0,1-4.874,1.439,6.31,6.31,0,0,1-4.332-1.367,4.925,4.925,0,0,1-1.517-3.6h12.754c.564,0,1.508-.241,1.508-1.831Zm-14.257-1.99a5.288,5.288,0,0,1,1.239-3.4,4.561,4.561,0,0,1,3.571-1.366,4.233,4.233,0,0,1,3.421,1.33,5.531,5.531,0,0,1,1.139,3.448Zm-16.284-8.928a9.269,9.269,0,0,0-7.288,2.92c-1.717,1.936-2.56,4.755-2.56,8.417A11.791,11.791,0,0,0,149.974,332a8.757,8.757,0,0,0,3.749,3.567,11.71,11.71,0,0,0,5.188,1.125,14.316,14.316,0,0,0,4.017-.515,11.029,11.029,0,0,0,3.284-1.6,1.044,1.044,0,0,0,.456-.829,1.566,1.566,0,0,0-.141-.615l-.847-1.767c-.2-.533-.546-.61-.734-.61a1.1,1.1,0,0,0-.6.228,8.627,8.627,0,0,1-4.874,1.439,6.311,6.311,0,0,1-4.332-1.367,4.925,4.925,0,0,1-1.517-3.6h12.754c.565,0,1.508-.237,1.508-1.822,0-3.494-.806-6.213-2.391-8.081s-3.963-2.847-7.065-2.847Zm4.577,8.928h-9.355a5.291,5.291,0,0,1,1.239-3.4,4.56,4.56,0,0,1,3.571-1.366,4.233,4.233,0,0,1,3.421,1.33A5.527,5.527,0,0,1,163.01,323.636Zm-13.665-6.851a1.157,1.157,0,0,0,0-.638,1.07,1.07,0,0,0-.4-.546c-.766-.583-3.134-.7-3.726-.7a19.437,19.437,0,0,0-5.348,1.016.865.865,0,0,0-.788-.456H136.71a1.193,1.193,0,0,0-1.047.4,1.88,1.88,0,0,0-.246,1.088v17.24a2.046,2.046,0,0,0,.41,1.366l.05.05a1.674,1.674,0,0,0,1.261.456H139a1.63,1.63,0,0,0,1.339-.51,2.112,2.112,0,0,0,.387-1.366v-14.12a14.79,14.79,0,0,1,3.985-.692,4,4,0,0,1,.528.023,3.732,3.732,0,0,1,1.544.414l.346.1h.077a.734.734,0,0,0,.725-.624l1.366-2.5Zm-16.243-.952a1.445,1.445,0,0,0-1.239-.455H128.22v-5.3a2.075,2.075,0,0,0-.342-1.285,1.42,1.42,0,0,0-1.2-.5h-2.219a1.417,1.417,0,0,0-1.2.5,2.075,2.075,0,0,0-.342,1.284v18.921c0,6.167,3.813,7.452,5.8,7.7a1.048,1.048,0,0,0,1.171-.907,1.037,1.037,0,0,0,.008-.132v-2.819a1.047,1.047,0,0,0-.565-.911,1.965,1.965,0,0,1-.606-.51,4.339,4.339,0,0,1-.51-2.569v-8.837h3.644a1.494,1.494,0,0,0,1.234-.428,2.114,2.114,0,0,0,.309-1.312v-1.13a2.231,2.231,0,0,0-.3-1.321Zm-16.662-.314a14.65,14.65,0,0,0-4.674-.77c-3.448,0-6.131.984-7.971,2.928s-2.765,4.737-2.765,8.322c0,3.166.784,5.662,2.323,7.415a9.287,9.287,0,0,0,9.9,2.032,6.438,6.438,0,0,0,1.8-1.221,5.8,5.8,0,0,1-.993,3.3,3.987,3.987,0,0,1-3.225,1.2,12.247,12.247,0,0,1-3.9-.633.724.724,0,0,0-.97.66l-.087,3.047a.721.721,0,0,0,.543.725,21.011,21.011,0,0,0,4.805.683c3.111,0,5.434-1.02,6.91-3.029s2.182-4.714,2.182-8.14v-14.8a36.885,36.885,0,0,0-3.876-1.722Zm-1.367,4.45v7.2a4.217,4.217,0,0,1-1.143,3.138,4.1,4.1,0,0,1-3,1.125,4.338,4.338,0,0,1-3.508-1.366,6.787,6.787,0,0,1-1.171-4.377c0-4.273,1.727-6.349,5.284-6.349a10.733,10.733,0,0,1,2.109.2,6.157,6.157,0,0,1,1.434.428ZM92.19,314.75a19.4,19.4,0,0,0-5.758.829l-.97.251a.866.866,0,0,0-.8-.456H82.288a1.194,1.194,0,0,0-1.048.4,1.876,1.876,0,0,0-.246,1.088v17.4a2.046,2.046,0,0,0,.41,1.367,1.644,1.644,0,0,0,1.317.5h1.859a1.631,1.631,0,0,0,1.339-.51,2.118,2.118,0,0,0,.387-1.366V320.02a17.957,17.957,0,0,1,4.354-.7,3.11,3.11,0,0,1,2.328.743,3.894,3.894,0,0,1,.706,2.651v11.556a2.04,2.04,0,0,0,.41,1.367,1.643,1.643,0,0,0,1.316.5h1.9a1.585,1.585,0,0,0,1.3-.51A2.12,2.12,0,0,0,99,334.258V322.374a7.887,7.887,0,0,0-1.872-5.7,6.6,6.6,0,0,0-4.942-1.927Zm-15.5.624H74.836a1.645,1.645,0,0,0-1.312.5,2.11,2.11,0,0,0-.41,1.407v16.976a2.043,2.043,0,0,0,.41,1.367,1.643,1.643,0,0,0,1.317.5H76.7a1.631,1.631,0,0,0,1.339-.51,2.12,2.12,0,0,0,.383-1.366V317.282a2.119,2.119,0,0,0-.41-1.407A1.645,1.645,0,0,0,76.694,315.373Zm-6.627-8.718c-1.544.687-4.76,3.348-4.76,4.031v5.466a7.87,7.87,0,0,0-5.07-1.462,8.321,8.321,0,0,0-4.8,1.4A8.865,8.865,0,0,0,52.325,320a14.247,14.247,0,0,0-1.065,5.671c0,7.329,3.539,11.046,10.522,11.046a15.232,15.232,0,0,0,4.874-.793,34.745,34.745,0,0,0,3.895-1.754V307.157a.511.511,0,0,0-.114-.337c-.1-.1-.237-.223-.369-.164Zm-4.76,16.4v8.317a6.252,6.252,0,0,1-3.416.815,5.191,5.191,0,0,1-4.054-1.462c-.865-.97-1.335-2.642-1.335-4.928a8.358,8.358,0,0,1,1.221-4.837,4.048,4.048,0,0,1,3.6-1.681,4.334,4.334,0,0,1,2.911.957,3.539,3.539,0,0,1,1.07,2.8Zm-22.875-8.3a19.4,19.4,0,0,0-5.758.829l-.114.032-.856.219a.857.857,0,0,0-.8-.456H32.526a1.194,1.194,0,0,0-1.048.4,1.867,1.867,0,0,0-.246,1.088v17.4a2.043,2.043,0,0,0,.41,1.367,1.643,1.643,0,0,0,1.317.5h1.858a1.63,1.63,0,0,0,1.339-.51,2.115,2.115,0,0,0,.388-1.366V320.02a17.957,17.957,0,0,1,4.354-.7,3.107,3.107,0,0,1,2.327.743,3.85,3.85,0,0,1,.706,2.651v11.556a2.043,2.043,0,0,0,.41,1.367,1.644,1.644,0,0,0,1.317.5h1.895a1.586,1.586,0,0,0,1.3-.51,2.116,2.116,0,0,0,.387-1.367V322.374a7.887,7.887,0,0,0-1.872-5.7,6.6,6.6,0,0,0-4.937-1.927Zm-22.716-.041a9.27,9.27,0,0,0-7.288,2.92c-1.717,1.936-2.555,4.755-2.555,8.417A11.785,11.785,0,0,0,11.263,332a8.76,8.76,0,0,0,3.749,3.567,11.719,11.719,0,0,0,5.2,1.125,14.316,14.316,0,0,0,4.017-.515,11.029,11.029,0,0,0,3.284-1.6,1.044,1.044,0,0,0,.456-.829,1.589,1.589,0,0,0-.141-.615l-.847-1.767c-.205-.533-.546-.61-.734-.61a1.1,1.1,0,0,0-.6.228,8.627,8.627,0,0,1-4.874,1.439,6.311,6.311,0,0,1-4.332-1.367,4.92,4.92,0,0,1-1.517-3.6H27.683c.565,0,1.508-.237,1.508-1.822,0-3.517-.8-6.222-2.373-8.072A8.942,8.942,0,0,0,19.717,314.709Zm4.6,8.928H14.939a5.291,5.291,0,0,1,1.239-3.4,4.562,4.562,0,0,1,3.571-1.366,4.233,4.233,0,0,1,3.421,1.33,5.528,5.528,0,0,1,1.143,3.434ZM7.874,331.407a4.342,4.342,0,0,1-.51-2.569V309.015a2.075,2.075,0,0,0-.342-1.284,1.42,1.42,0,0,0-1.2-.5H3.588a1.417,1.417,0,0,0-1.2.5,2.075,2.075,0,0,0-.342,1.284v19.991c0,6.167,3.813,7.452,5.8,7.7a1.048,1.048,0,0,0,1.195-.876,1.032,1.032,0,0,0,.012-.172v-2.819a1.047,1.047,0,0,0-.565-.911A1.973,1.973,0,0,1,7.874,331.407Z" transform="translate(-2.039 -306.64)" fill="#101f30"></path></g><path id="Path_30" data-name="Path 30" d="M154.329,270.243a163.852,163.852,0,0,0-16.9,2.806c-9.392,2.341-9.224,10.18-9.224,13.278v10.467c0,.159.118.164.2.059a95.4,95.4,0,0,1,13.26-14.311s.037-.037-.027,0a43.008,43.008,0,0,0-8.071,3.471v-1.33c-.037-5.339,3.106-6.777,6.832-7.821a64.5,64.5,0,0,1,8.755-1.335s-.456,3.325-1.07,10.1c-.419,4.933-4.054,6.026-9.124,6.026h-2.851a14.47,14.47,0,0,0-2.583,5.256h5.589c10.645,0,13.023-4.691,13.533-11.633a112.812,112.812,0,0,1,1.795-14.9.1.1,0,0,0-.067-.125A.1.1,0,0,0,154.329,270.243Z" transform="translate(-57.127 -270.241)" fill="url(#linear-gradient)"></path><path id="Path_31" data-name="Path 31" d="M337.951,322.806a2.05,2.05,0,0,0-.816-.811,2.223,2.223,0,0,0-2.172,0,2.044,2.044,0,0,0-.815.811,2.2,2.2,0,0,0,0,2.2,2.067,2.067,0,0,0,.811.811,2.207,2.207,0,0,0,2.191,0,2.079,2.079,0,0,0,.8-.811A2.2,2.2,0,0,0,337.951,322.806Zm-.365,1.986a1.693,1.693,0,0,1-.651.656,1.765,1.765,0,0,1-1.758,0,1.673,1.673,0,0,1-.651-.656,1.771,1.771,0,0,1,0-1.772,1.653,1.653,0,0,1,.656-.651,1.787,1.787,0,0,1,1.74,0,1.648,1.648,0,0,1,.656.651,1.774,1.774,0,0,1,0,1.772Z" transform="translate(-146.918 -292.715)" fill="#101f30"></path><path id="Path_32" data-name="Path 32" d="M337.721,325.109a1.129,1.129,0,0,0-.15-.173.554.554,0,0,0-.155-.082.713.713,0,0,0,.456-.214.588.588,0,0,0,.159-.41.619.619,0,0,0-.082-.318.551.551,0,0,0-.21-.214.873.873,0,0,0-.35-.091h-1.162v2.227h.456v-.911h.118a.5.5,0,0,1,.314.1,1.516,1.516,0,0,1,.314.456l.186.359h.561l-.264-.455c-.109-.155-.173-.245-.191-.269Zm-.387-.592a2.179,2.179,0,0,1-.487.032h-.183v-.592h.183a2.167,2.167,0,0,1,.483.032.291.291,0,0,1,.15.1.273.273,0,0,1,.055.164.286.286,0,0,1-.2.278Z" transform="translate(-147.954 -293.542)" fill="#101f30"></path></g></svg> 