<?xml version="1.0" encoding="UTF-8"?> <svg xmlns="http://www.w3.org/2000/svg" id="trustpilot-logo" width="232.461" height="57.079" viewBox="0 0 232.461 57.079"><path id="Path_17" data-name="Path 17" d="M-142.887-206.367h23.534v4.389h-9.254v24.683H-133.7v-24.683h-9.213v-4.389Zm22.527,8.022h4.349v4.062h.082a4.78,4.78,0,0,1,.8-1.661,7.415,7.415,0,0,1,1.416-1.478,7.552,7.552,0,0,1,1.847-1.086,5.647,5.647,0,0,1,2.072-.411c.533,0,.923.021,1.128.042s.411.061.635.082v4.473c-.327-.063-.656-.1-1-.145a8.783,8.783,0,0,0-1.007-.061,5.426,5.426,0,0,0-2.215.472,5.11,5.11,0,0,0-1.806,1.374,6.983,6.983,0,0,0-1.231,2.258,9.543,9.543,0,0,0-.451,3.1v10.012h-4.639v-21.03Zm33.648,21.051h-4.555v-2.934h-.082a6.32,6.32,0,0,1-2.544,2.544,6.966,6.966,0,0,1-3.448.965c-2.768,0-4.779-.677-6.01-2.051s-1.847-3.448-1.847-6.218v-13.357h4.637v12.906c0,1.846.35,3.16,1.067,3.919a3.864,3.864,0,0,0,2.976,1.147,5.7,5.7,0,0,0,2.441-.451,4.115,4.115,0,0,0,1.579-1.21,4.637,4.637,0,0,0,.883-1.806,8.9,8.9,0,0,0,.266-2.278v-12.207h4.637Zm7.9-6.751a3.572,3.572,0,0,0,1.539,2.852,6.193,6.193,0,0,0,3.221.82,13.9,13.9,0,0,0,1.476-.1,6.271,6.271,0,0,0,1.56-.39,3,3,0,0,0,1.21-.841,2.041,2.041,0,0,0,.43-1.436,1.975,1.975,0,0,0-.656-1.457,4.593,4.593,0,0,0-1.558-.923,15.487,15.487,0,0,0-2.175-.6c-.822-.164-1.642-.348-2.483-.533a23.686,23.686,0,0,1-2.5-.7,7.636,7.636,0,0,1-2.154-1.107,4.882,4.882,0,0,1-1.518-1.766A5.513,5.513,0,0,1-83-192.889a4.81,4.81,0,0,1,.841-2.871,6.378,6.378,0,0,1,2.114-1.868,9.8,9.8,0,0,1,2.852-1,17.37,17.37,0,0,1,2.995-.287,14.018,14.018,0,0,1,3.118.348,8.021,8.021,0,0,1,2.688,1.13,6.618,6.618,0,0,1,1.99,2.009,7.03,7.03,0,0,1,1.006,3h-4.842a2.891,2.891,0,0,0-1.518-2.237,6.22,6.22,0,0,0-2.749-.575,8.742,8.742,0,0,0-1.17.082,6.58,6.58,0,0,0-1.273.308,2.766,2.766,0,0,0-1,.656,1.588,1.588,0,0,0-.411,1.128,1.755,1.755,0,0,0,.6,1.376,5,5,0,0,0,1.539.883,15.674,15.674,0,0,0,2.175.594c.82.165,1.661.35,2.523.535.841.185,1.663.43,2.483.7a7.537,7.537,0,0,1,2.175,1.109,5.482,5.482,0,0,1,1.539,1.743,5.322,5.322,0,0,1,.6,2.607,5.661,5.661,0,0,1-.862,3.179,6.827,6.827,0,0,1-2.217,2.114,10.414,10.414,0,0,1-3.037,1.189,15.171,15.171,0,0,1-3.3.371,13.989,13.989,0,0,1-3.693-.453,8.982,8.982,0,0,1-2.934-1.353,6.721,6.721,0,0,1-1.95-2.277A7.493,7.493,0,0,1-83.49-184h4.679Zm15.307-14.3H-60v-6.319h4.637v6.319h4.186v3.467H-55.36v11.245a11.255,11.255,0,0,0,.061,1.271,2.362,2.362,0,0,0,.287.9,1.317,1.317,0,0,0,.677.554,3.3,3.3,0,0,0,1.231.185c.327,0,.656,0,.984-.021a5.3,5.3,0,0,0,.986-.143v3.59c-.512.061-1.026.1-1.5.164a11.778,11.778,0,0,1-1.5.082,10.356,10.356,0,0,1-2.955-.348,3.852,3.852,0,0,1-1.745-1.026,3.576,3.576,0,0,1-.862-1.682,12.778,12.778,0,0,1-.266-2.319v-12.413h-3.508v-3.508Zm15.613,0H-43.5v2.852h.082a5.72,5.72,0,0,1,2.728-2.626,8.973,8.973,0,0,1,3.8-.8,9.817,9.817,0,0,1,4.329.883,8.476,8.476,0,0,1,3.078,2.4,10.543,10.543,0,0,1,1.827,3.571,15,15,0,0,1,.615,4.349,15.132,15.132,0,0,1-.554,4.1,10.937,10.937,0,0,1-1.663,3.527,8.15,8.15,0,0,1-2.831,2.443,8.41,8.41,0,0,1-4.041.923,11.288,11.288,0,0,1-2.032-.185,8.966,8.966,0,0,1-1.948-.6,6.994,6.994,0,0,1-1.724-1.046,6.5,6.5,0,0,1-1.334-1.476h-.082v10.5h-4.637ZM-31.683-187.8a10.51,10.51,0,0,0-.369-2.77,7.545,7.545,0,0,0-1.107-2.38,5.633,5.633,0,0,0-1.827-1.661,5.117,5.117,0,0,0-2.525-.637,5.109,5.109,0,0,0-4.41,2.032A9.011,9.011,0,0,0-43.4-187.8a10.416,10.416,0,0,0,.388,2.955,6.64,6.64,0,0,0,1.17,2.338,5.538,5.538,0,0,0,1.847,1.539,5.172,5.172,0,0,0,2.5.575,5.225,5.225,0,0,0,2.688-.656A5.693,5.693,0,0,0-33-182.732a6.981,6.981,0,0,0,1.026-2.359,13.18,13.18,0,0,0,.287-2.707Zm8.187-18.568h4.637v4.389H-23.5Zm0,8.022h4.637v21.051H-23.5v-21.051Zm8.781-8.022h4.637v29.072h-4.637v-29.072ZM4.14-176.72a11.468,11.468,0,0,1-4.492-.841,9.9,9.9,0,0,1-3.345-2.3,9.991,9.991,0,0,1-2.072-3.509,13.547,13.547,0,0,1-.719-4.473,13.386,13.386,0,0,1,.719-4.431A9.991,9.991,0,0,1-3.7-195.781a9.417,9.417,0,0,1,3.345-2.3,11.468,11.468,0,0,1,4.492-.841,11.478,11.478,0,0,1,4.494.841,9.9,9.9,0,0,1,3.343,2.3,9.995,9.995,0,0,1,2.074,3.508,13.386,13.386,0,0,1,.717,4.431,13.547,13.547,0,0,1-.717,4.473,10,10,0,0,1-2.074,3.509,9.427,9.427,0,0,1-3.343,2.3,11.478,11.478,0,0,1-4.494.841Zm0-3.672a5.389,5.389,0,0,0,2.688-.656,5.747,5.747,0,0,0,1.867-1.7,7.686,7.686,0,0,0,1.088-2.38,10.951,10.951,0,0,0,.348-2.709,11.028,11.028,0,0,0-.348-2.687,7.01,7.01,0,0,0-1.088-2.38,5.67,5.67,0,0,0-1.867-1.684,5.389,5.389,0,0,0-2.688-.656,5.377,5.377,0,0,0-2.687.656,5.914,5.914,0,0,0-1.868,1.684,7.389,7.389,0,0,0-1.086,2.38,10.938,10.938,0,0,0-.35,2.687,10.863,10.863,0,0,0,.35,2.709,7.191,7.191,0,0,0,1.086,2.38,5.753,5.753,0,0,0,1.868,1.7,5.172,5.172,0,0,0,2.687.656Zm11.983-17.953h3.508v-6.319h4.637v6.319h4.186v3.467H24.268v11.245a11.725,11.725,0,0,0,.061,1.271,2.363,2.363,0,0,0,.287.9,1.324,1.324,0,0,0,.677.554,3.3,3.3,0,0,0,1.231.185c.329,0,.656,0,.986-.021a5.3,5.3,0,0,0,.984-.143v3.59c-.512.061-1.026.1-1.5.164a11.778,11.778,0,0,1-1.5.082,10.356,10.356,0,0,1-2.955-.348,3.852,3.852,0,0,1-1.745-1.026,3.557,3.557,0,0,1-.86-1.682,12.6,12.6,0,0,1-.268-2.319v-12.413H16.163v-3.508Z" transform="translate(203.968 226.598)" fill="#191919"></path><path id="Path_18" data-name="Path 18" d="M-119.336-196.769h-21.256L-147.159-217l-6.585,20.231L-175-196.79l17.213,12.516-6.585,20.21,17.213-12.5,17.194,12.5-6.566-20.21Z" transform="translate(175 217)" fill="#00b67a"></path><path id="Path_19" data-name="Path 19" d="M-148.26-195.224l-1.478-4.576-10.628,7.713Z" transform="translate(188.208 232.526)" fill="#005128"></path></svg> 